<?xml version="1.0" standalone="no"?>
<!DOCTYPE svg PUBLIC "-//W3C//DTD SVG 20010904//EN"
 "http://www.w3.org/TR/2001/REC-SVG-20010904/DTD/svg10.dtd">
<svg version="1.0" xmlns="http://www.w3.org/2000/svg"
 width="1024.000000pt" height="1024.000000pt" viewBox="0 0 1024.000000 1024.000000"
 preserveAspectRatio="xMidYMid meet">
<metadata>
Hello
</metadata>
<g transform="translate(0.000000,1024.000000) scale(0.100000,-0.100000)"
fill="#000000" stroke="none">
<path d="M2000 9606 c-3 -2 -54 -7 -115 -9 -117 -6 -228 -21 -270 -37 -14 -5
-25 -7 -25 -5 0 3 -37 -9 -82 -26 -46 -17 -89 -31 -95 -32 -7 0 -13 -4 -13 -8
0 -4 -10 -9 -23 -13 -23 -5 -202 -110 -223 -130 -6 -6 -28 -24 -49 -41 -101
-81 -259 -271 -309 -373 -10 -20 -26 -53 -36 -72 -20 -39 -67 -168 -74 -203
-3 -12 -13 -56 -23 -97 -17 -72 -18 -230 -18 -3425 0 -1842 4 -3370 8 -3395 5
-25 10 -56 12 -70 2 -14 4 -25 5 -25 2 0 6 -18 15 -58 3 -15 17 -57 30 -93 13
-35 21 -64 17 -64 -4 0 -2 -4 3 -8 6 -4 18 -25 28 -47 27 -58 103 -187 124
-210 10 -11 26 -30 35 -43 48 -69 165 -179 273 -254 209 -146 463 -225 717
-224 54 1 98 -1 98 -4 0 -3 27 -3 60 0 33 3 65 3 71 -1 6 -3 26 -3 44 1 18 4
38 4 45 0 7 -4 26 -4 44 -1 17 4 45 4 63 1 17 -4 37 -4 43 0 7 4 27 4 45 0 18
-4 39 -4 46 1 7 4 17 5 22 2 11 -6 304 -6 315 1 4 2 14 1 21 -3 7 -5 28 -5 46
-1 18 4 39 4 45 0 7 -4 24 -4 39 0 14 4 35 4 45 0 11 -3 39 -3 63 0 23 4 43 4
43 1 0 -7 138 -4 157 3 7 3 13 2 13 -3 0 -5 18 -5 40 -1 22 4 40 4 40 0 0 -4
18 -4 40 0 22 4 40 4 40 0 0 -4 18 -4 40 0 22 4 40 4 40 0 0 -4 18 -4 40 0 22
4 40 4 40 0 0 -4 18 -4 40 0 22 4 40 4 40 0 0 -4 18 -4 40 0 23 4 40 3 40 -2
0 -5 4 -7 10 -3 8 5 59 6 165 5 11 -1 44 0 73 0 29 0 57 -2 62 -5 6 -3 10 -2
10 3 0 5 20 6 45 2 25 -4 47 -5 50 -2 6 6 94 6 101 0 2 -3 23 -2 44 2 22 4 42
4 45 0 2 -4 25 -4 50 0 25 4 45 4 45 0 0 -4 20 -4 45 0 25 4 45 4 45 0 0 -4
20 -4 45 0 25 4 45 4 45 0 0 -4 20 -4 43 0 24 3 52 3 62 0 10 -3 38 -3 62 0
23 4 43 4 43 0 0 -4 20 -4 45 0 25 4 45 4 45 0 0 -4 18 -4 40 0 22 4 42 5 45
2 7 -7 154 -4 166 3 5 4 9 2 9 -3 0 -5 17 -6 40 -2 22 4 40 4 40 0 0 -4 18 -4
40 0 22 4 40 4 40 0 0 -4 18 -4 40 0 22 4 40 4 40 0 0 -4 18 -4 40 0 22 4 40
4 40 0 0 -4 18 -4 40 0 22 4 40 4 40 0 0 -4 18 -4 40 0 22 4 40 4 40 -1 0 -5
6 -6 13 -3 18 6 157 10 157 4 0 -3 27 -3 60 0 33 3 65 3 71 -1 6 -3 26 -3 44
1 18 4 38 4 45 0 7 -4 26 -4 44 -1 17 4 45 4 63 1 17 -4 37 -4 43 0 7 4 27 4
45 0 18 -4 39 -4 46 1 7 4 17 5 22 2 11 -6 304 -6 315 1 4 2 14 1 21 -3 7 -5
28 -5 46 -1 18 4 39 4 45 0 7 -4 24 -4 39 0 14 4 35 4 45 0 11 -3 39 -3 63 0
23 4 43 4 43 1 0 -7 138 -4 157 3 7 3 13 2 13 -3 0 -5 18 -5 40 -1 22 4 40 4
40 0 0 -4 18 -4 40 0 22 4 40 4 40 0 0 -4 18 -4 40 0 22 4 40 4 40 0 0 -4 18
-4 40 0 22 4 40 4 40 0 0 -4 18 -4 40 0 22 4 40 4 40 0 0 -4 18 -4 40 0 23 4
40 3 40 -2 0 -5 4 -7 10 -3 8 5 59 6 165 5 11 -1 44 0 73 0 29 0 57 -2 62 -5
6 -3 10 -2 10 3 0 5 20 6 45 2 25 -4 45 -4 45 -1 0 7 99 6 106 -2 3 -2 20 -1
38 3 19 4 39 4 46 0 7 -4 27 -4 45 0 18 4 39 4 46 -1 7 -4 17 -6 21 -3 4 3 40
7 80 9 76 4 136 11 178 20 14 3 36 8 50 11 90 18 293 103 375 158 22 14 48 32
59 39 92 61 246 211 294 286 9 14 19 28 22 31 26 22 144 253 152 295 1 11 6
22 9 25 6 6 36 120 44 165 2 17 8 48 12 70 8 41 11 6687 2 6762 -2 24 -7 43
-12 43 -4 0 -6 3 -5 8 3 14 -15 96 -33 150 -28 82 -91 227 -101 230 -4 2 -8
10 -8 18 0 8 -3 14 -8 14 -4 0 -14 15 -21 33 -8 17 -22 39 -31 47 -8 8 -24 29
-34 45 -44 69 -236 254 -263 255 -7 0 -13 4 -13 9 0 8 -65 53 -80 56 -3 0 -16
8 -30 17 -14 9 -38 22 -55 30 -16 7 -32 15 -35 18 -8 9 -172 68 -202 74 -15 2
-32 8 -38 11 -6 4 -28 8 -48 10 -20 2 -57 7 -82 12 -25 5 -89 8 -142 8 -54 0
-98 3 -98 6 0 3 -20 3 -45 -1 -25 -4 -45 -4 -45 0 0 4 -20 4 -43 0 -24 -3 -52
-3 -62 0 -10 3 -38 3 -62 0 -23 -4 -43 -4 -43 0 0 4 -20 4 -45 0 -25 -4 -45
-4 -45 0 0 4 -18 4 -40 0 -22 -4 -42 -5 -45 -2 -7 7 -154 4 -166 -3 -5 -4 -9
-2 -9 3 0 5 -17 6 -40 2 -22 -4 -40 -4 -40 0 0 4 -18 4 -40 0 -22 -4 -40 -4
-40 0 0 4 -18 4 -40 0 -22 -4 -40 -4 -40 0 0 4 -18 4 -40 0 -22 -4 -40 -4 -40
0 0 4 -18 4 -40 0 -22 -4 -40 -4 -40 0 0 4 -18 4 -40 0 -22 -4 -40 -4 -40 1 0
5 -6 6 -13 3 -18 -6 -157 -10 -157 -4 0 3 -27 3 -60 0 -33 -3 -65 -3 -71 1 -6
3 -26 3 -44 -1 -18 -4 -38 -4 -45 0 -7 4 -26 4 -44 1 -17 -4 -45 -4 -63 -1
-17 4 -37 4 -43 0 -7 -4 -27 -4 -45 0 -18 4 -39 4 -46 -1 -7 -4 -17 -5 -22 -2
-11 6 -304 6 -315 -1 -4 -2 -14 -1 -21 3 -7 5 -28 5 -46 1 -18 -4 -39 -4 -45
0 -7 4 -24 4 -39 0 -14 -4 -35 -4 -45 0 -11 3 -39 3 -63 0 -23 -4 -43 -4 -43
-1 0 7 -138 4 -157 -3 -7 -3 -13 -2 -13 3 0 5 -18 5 -40 1 -22 -4 -40 -4 -40
0 0 4 -18 4 -40 0 -22 -4 -40 -4 -40 0 0 4 -18 4 -40 0 -22 -4 -40 -4 -40 0 0
4 -18 4 -40 0 -22 -4 -40 -4 -40 0 0 4 -18 4 -40 0 -22 -4 -40 -4 -40 0 0 4
-18 4 -40 0 -23 -4 -40 -3 -40 2 0 5 -4 7 -10 3 -8 -5 -59 -6 -165 -5 -11 1
-44 0 -73 0 -29 0 -57 2 -62 5 -6 3 -10 2 -10 -3 0 -5 -20 -6 -45 -2 -25 4
-47 5 -50 2 -6 -6 -94 -6 -101 0 -2 3 -23 2 -44 -2 -22 -4 -42 -4 -45 0 -2 4
-25 4 -50 0 -25 -4 -45 -4 -45 0 0 4 -20 4 -45 0 -25 -4 -45 -4 -45 0 0 4 -20
4 -45 0 -25 -4 -45 -4 -45 0 0 4 -20 4 -43 0 -24 -3 -52 -3 -62 0 -10 3 -38 3
-62 0 -23 -4 -43 -4 -43 0 0 4 -20 4 -45 0 -25 -4 -45 -4 -45 0 0 4 -18 4 -40
0 -22 -4 -42 -5 -45 -2 -7 7 -154 4 -166 -3 -5 -4 -9 -2 -9 3 0 5 -17 6 -40 2
-22 -4 -40 -4 -40 0 0 4 -18 4 -40 0 -22 -4 -40 -4 -40 0 0 4 -18 4 -40 0 -22
-4 -40 -4 -40 0 0 4 -18 4 -40 0 -22 -4 -40 -4 -40 0 0 4 -18 4 -40 0 -22 -4
-40 -4 -40 0 0 4 -18 4 -40 0 -22 -4 -40 -4 -40 1 0 5 -6 6 -13 3 -18 -6 -157
-10 -157 -4 0 3 -27 3 -60 0 -33 -3 -65 -3 -71 1 -6 3 -26 3 -44 -1 -18 -4
-38 -4 -45 0 -7 4 -26 4 -44 1 -17 -4 -45 -4 -63 -1 -17 4 -37 4 -43 0 -7 -4
-27 -4 -45 0 -18 4 -39 4 -46 -1 -7 -4 -17 -5 -22 -2 -11 6 -304 6 -315 -1 -4
-2 -14 -1 -21 3 -7 5 -28 5 -46 1 -18 -4 -39 -4 -45 0 -7 4 -24 4 -39 0 -14
-4 -35 -4 -45 0 -11 3 -39 3 -62 0 -24 -4 -45 -3 -46 2 -2 5 -6 7 -8 4z m1245
-1932 c89 -2 171 -25 268 -77 59 -31 197 -154 197 -175 0 -7 4 -12 10 -12 12
0 85 -151 99 -206 6 -22 13 -67 15 -100 3 -32 6 -61 7 -64 1 -3 0 -9 -1 -15
-2 -5 -4 -28 -6 -50 -1 -22 -6 -51 -9 -65 -4 -14 -8 -32 -9 -40 -4 -24 -15
-51 -49 -120 -37 -76 -45 -86 -117 -160 -66 -67 -126 -108 -200 -138 -54 -22
-69 -26 -143 -42 -41 -8 -213 -6 -237 3 -8 4 -28 9 -44 11 -16 3 -67 24 -115
48 -121 60 -224 163 -281 282 -22 47 -43 100 -47 118 -3 18 -9 38 -13 43 -14
21 -4 239 13 297 10 32 16 60 15 62 -2 2 4 12 12 22 8 11 24 37 35 59 11 22
28 49 38 59 9 11 27 35 40 53 12 18 26 33 30 33 4 0 19 10 32 23 57 54 121 91
210 122 64 22 80 25 138 29 27 3 51 7 55 10 3 4 8 3 11 -1 3 -5 24 -8 46 -9z
m2065 -1944 c109 -36 180 -80 262 -162 119 -118 178 -256 184 -428 2 -76 -1
-106 -20 -190 -11 -46 -50 -135 -80 -180 -28 -42 -117 -136 -161 -170 -31 -24
-153 -82 -200 -96 -65 -19 -209 -26 -275 -14 -92 17 -107 22 -189 62 -77 38
-170 116 -229 191 -20 27 -72 117 -66 117 2 0 -3 14 -11 31 -43 82 -54 297
-21 404 8 28 14 53 13 56 -1 4 5 15 13 25 8 11 24 37 35 59 11 22 28 49 38 59
9 11 27 35 40 53 12 18 26 33 30 33 4 0 19 10 32 23 40 38 68 58 127 88 32 16
60 29 63 29 5 1 28 8 55 17 8 3 28 7 44 9 16 3 31 6 34 9 2 2 52 2 111 0 74
-2 126 -10 171 -25z m1782 -1895 c24 -2 61 -7 83 -11 48 -7 205 -73 205 -85 0
-5 7 -9 15 -9 8 0 50 -35 93 -77 60 -61 87 -97 120 -164 24 -48 45 -99 48
-115 9 -43 12 -59 14 -59 1 0 3 -23 4 -51 2 -28 6 -56 10 -62 4 -7 3 -12 -1
-12 -5 0 -8 -14 -7 -30 5 -74 -43 -221 -100 -310 -40 -61 -172 -190 -195 -190
-5 0 -14 -7 -21 -15 -7 -8 -16 -12 -21 -9 -5 3 -9 0 -9 -5 0 -6 -3 -10 -7 -9
-5 1 -19 -3 -33 -9 -36 -16 -64 -27 -75 -29 -5 -1 -12 -3 -15 -4 -45 -17 -223
-20 -298 -4 -68 14 -232 88 -232 104 0 6 -5 10 -12 10 -21 0 -144 138 -175
197 -51 96 -74 173 -77 260 0 24 -5 43 -9 43 -5 0 -6 4 -2 9 3 6 7 35 10 66 2
30 6 59 9 63 3 5 8 24 11 43 7 42 65 164 96 203 50 63 116 126 167 160 28 20
52 33 52 30 0 -4 6 -2 13 4 19 16 115 52 150 56 18 3 32 5 32 6 0 1 19 3 43 5
24 1 46 5 49 9 3 3 10 3 14 0 5 -2 28 -7 51 -9z"/>
</g>
</svg>
